<?xml version="1.0" encoding="UTF-8" standalone="no"?>
<svg width="32px" height="33px" viewBox="0 0 32 33" version="1.1" xmlns="http://www.w3.org/2000/svg" xmlns:xlink="http://www.w3.org/1999/xlink" xmlns:sketch="http://www.bohemiancoding.com/sketch/ns">
    <!-- Generator: sketchtool 3.4 (381) - http://www.bohemiancoding.com/sketch -->
    <title>Instagram</title>
    <desc>Created with sketchtool.</desc>
    <defs></defs>
    <g id="Page-1" stroke="none" stroke-width="1" fill="none" fill-rule="evenodd" sketch:type="MSPage">
        <g id="Home-Desktop" sketch:type="MSArtboardGroup" transform="translate(-704.000000, -1808.000000)">
            <g id="Footer-Section" sketch:type="MSLayerGroup" transform="translate(0.000000, 1677.000000)">
                <g id="Social-Buttons" transform="translate(634.000000, 131.000000)" sketch:type="MSShapeGroup">
                    <g id="Instagram" transform="translate(70.000000, 0.000000)">
                        <circle id="Instagram-BG" fill="#FFFFFF" cx="16" cy="16.5" r="16"></circle>
                        <path d="M22.4712303,22.2884923 C22.482367,22.2263278 22.4905338,22.1631639 22.5,22.1007995 L22.5,10.8992005 C22.4909051,10.8378355 22.4831094,10.7762707 22.4719728,10.7151057 C22.3581933,10.0876642 21.8776467,9.60074243 21.2875898,9.51379212 C21.2630891,9.51039406 21.2391453,9.50459737 21.2150159,9.5 L10.7849841,9.5 C10.722062,9.51219303 10.6587687,9.52138778 10.5967747,9.5365791 C10.0208241,9.67789834 9.59466155,10.1774129 9.51262154,10.8058538 C9.50928054,10.8320388 9.50426905,10.858024 9.5,10.884209 L9.5,22.1163906 C9.5118791,22.18755 9.52134525,22.259309 9.53619412,22.3300685 C9.66352318,22.936522 10.1442553,23.4066533 10.7161224,23.4858081 C10.7437785,23.4894061 10.7716201,23.4952027 10.7992761,23.5 L21.2007239,23.5 C21.2682862,23.4876071 21.3360342,23.4774129 21.4028541,23.4618218 C21.9337012,23.3404911 22.3674738,22.8635637 22.4712303,22.2884923 Z M10.9065592,21.429783 C10.9065592,21.7278127 11.1461828,21.9840662 11.4229287,21.9840662 C14.473629,21.9842661 17.5241437,21.9842661 20.574844,21.9840662 C20.8541884,21.9840662 21.0925127,21.7282125 21.0925127,21.427984 C21.0926984,19.3585665 21.0925127,17.2893489 21.0925127,15.2201314 L21.0925127,15.1771559 L19.8515184,15.1771559 C20.0267351,15.7802113 20.0805623,16.3936608 20.0118862,17.0189035 C19.942839,17.6443461 19.7557432,18.2264135 19.4509702,18.7639063 C19.1460115,19.3019989 18.7506603,19.7477441 18.2665872,20.1025414 C17.0118577,21.0228155 15.3599209,21.1037693 14.0285341,20.2990291 C13.3555091,19.8926613 12.8270749,19.3259852 12.4586373,18.5958024 C11.9090435,17.506225 11.8212496,16.3626785 12.1436557,15.1761565 C11.7319708,15.1765563 11.3219563,15.1765563 10.9063736,15.1765563 L10.9063736,15.2143347 C10.9063736,17.2861508 10.906188,19.3579669 10.9065592,21.429783 Z M15.9395837,19.3353798 C17.4114779,19.3693604 18.601986,18.1028841 18.6329831,16.5625642 C18.6647225,14.974072 17.4749568,13.6620217 16.0000928,13.6630211 C14.5582675,13.6620217 13.3861349,14.9113078 13.3659033,16.4570246 C13.3451149,18.0443175 14.5250432,19.3025985 15.9395837,19.3353798 Z M21.0923271,12.5322673 C21.0925127,12.0903198 21.0925127,11.6481725 21.0923271,11.206225 C21.0923271,10.8892062 20.8593855,10.6369503 20.5653779,10.6367504 C20.1561059,10.6365505 19.7468339,10.6363507 19.3373763,10.6367504 C19.0441111,10.6371502 18.810427,10.8900057 18.8102414,11.2070246 C18.8100558,11.6451742 18.8089422,12.0833238 18.8117263,12.5216733 C18.8120975,12.587036 18.8236054,12.6549971 18.842909,12.7169617 C18.9164109,12.9502284 19.1148289,13.0933467 19.3577935,13.094546 C19.5552835,13.0949457 19.7527735,13.0943461 19.950449,13.0943461 C20.1642728,13.0917476 20.3788389,13.0961451 20.5928483,13.0905483 C20.8681092,13.0831525 21.0923271,12.8290977 21.0923271,12.5322673 Z" id="Instagram-Logo" fill="#333333"></path>
                    </g>
                </g>
            </g>
        </g>
    </g>
</svg>