<?xml version="1.0" encoding="UTF-8" standalone="no"?>
<svg width="32px" height="33px" viewBox="0 0 32 33" version="1.1" xmlns="http://www.w3.org/2000/svg" xmlns:xlink="http://www.w3.org/1999/xlink" xmlns:sketch="http://www.bohemiancoding.com/sketch/ns">
    <!-- Generator: sketchtool 3.4 (381) - http://www.bohemiancoding.com/sketch -->
    <title>Pinterest</title>
    <desc>Created with sketchtool.</desc>
    <defs></defs>
    <g id="Page-1" stroke="none" stroke-width="1" fill="none" fill-rule="evenodd" sketch:type="MSPage">
        <g id="Home-Desktop" sketch:type="MSArtboardGroup" transform="translate(-774.000000, -1808.000000)">
            <g id="Footer-Section" sketch:type="MSLayerGroup" transform="translate(0.000000, 1677.000000)">
                <g id="Social-Buttons" transform="translate(634.000000, 131.000000)" sketch:type="MSShapeGroup">
                    <g id="Pinterest" transform="translate(140.000000, 0.000000)">
                        <circle id="Pinterest-BG" fill="#FFFFFF" cx="16" cy="16.5" r="16"></circle>
                        <path d="M10.5,14.2411477 C10.5,15.8218364 11.0314671,17.2280838 12.1713611,17.752122 C12.3582765,17.8381688 12.5257027,17.7550821 12.57991,17.5220515 C12.6176194,17.3607775 12.7068167,16.9539181 12.746611,16.7844784 C12.8012715,16.5539996 12.78006,16.4731585 12.6292223,16.2722806 C12.300534,15.8357182 12.0905034,15.2705449 12.0905034,14.4699934 C12.0905034,12.1474447 13.6336888,10.0682359 16.1089131,10.0682359 C18.3006823,10.0682359 19.5048455,11.5762492 19.5048455,13.5902339 C19.5048455,16.2401279 18.4633948,18.4766298 16.9173088,18.4766298 C16.0634987,18.4766298 15.4243422,17.6814881 15.6292058,16.7062912 C15.8744983,15.5420567 16.3496733,14.2855491 16.3496733,13.4451894 C16.3496733,12.692918 15.9910712,12.0654808 15.248939,12.0654808 C14.3760929,12.0654808 13.6749335,13.082221 13.6749335,14.4442712 C13.6749335,15.3117821 13.9352735,15.8984925 13.9352735,15.8984925 C13.9352735,15.8984925 13.0420317,20.1601051 12.8854832,20.9064563 C12.5736553,22.3928304 12.8386184,24.2149195 12.8610083,24.3989555 C12.8741522,24.5079686 12.9986114,24.5338949 13.0549943,24.4515227 C13.1354894,24.3332211 14.1750365,22.8880842 14.5284716,21.4440701 C14.6284559,21.0351693 15.1025431,18.9178875 15.1025431,18.9178875 C15.3860889,19.5269518 16.2148802,20.0634428 17.0962472,20.0634428 C19.7199524,20.0634428 21.5,17.3700661 21.5,13.7648793 C21.5,11.0388395 19.4494598,8.5 16.3329034,8.5 C12.4551789,8.5 10.5,11.6305515 10.5,14.2411477 Z" id="Pinterest-Logo" fill="#333333"></path>
                    </g>
                </g>
            </g>
        </g>
    </g>
</svg>